<svg width="36" height="44" viewBox="0 0 36 44" fill="none" xmlns="http://www.w3.org/2000/svg">
<path d="M30.395 0H5.52197C4.19589 0 2.92412 0.526784 1.98644 1.46447C1.04876 2.40215 0.521973 3.67392 0.521973 5V38.916C0.521973 40.2421 1.04876 41.5139 1.98644 42.4515C2.92412 43.3892 4.19589 43.916 5.52197 43.916H30.393C31.7191 43.916 32.9908 43.3892 33.9285 42.4515C34.8662 41.5139 35.393 40.2421 35.393 38.916V5C35.3931 4.34352 35.2639 3.69345 35.0128 3.08689C34.7617 2.48033 34.3936 1.92917 33.9295 1.46488C33.4654 1.00059 32.9144 0.632253 32.3079 0.380909C31.7015 0.129564 31.0515 0.000131309 30.395 0V0ZM5.20797 16.855C5.20797 15.683 6.15897 14.734 7.32897 14.734H8.07097C7.2487 13.8301 6.79332 12.6519 6.79397 11.43C6.79411 10.122 7.31385 8.86753 8.23888 7.9427C9.1639 7.01786 10.4184 6.49837 11.7265 6.4985C13.0345 6.49863 14.2889 7.01838 15.2138 7.9434C16.1386 8.86843 16.6581 10.123 16.658 11.431C16.6585 12.653 16.2023 13.831 15.379 14.734H16.088C16.3665 14.7339 16.6424 14.7886 16.8998 14.8952C17.1572 15.0017 17.3911 15.158 17.588 15.3549C17.785 15.5519 17.9412 15.7858 18.0478 16.0432C18.1543 16.3006 18.2091 16.5764 18.209 16.855V20.433C18.209 21.555 17.334 22.463 16.234 22.539H7.18297C6.6482 22.5035 6.14684 22.2664 5.78023 21.8754C5.41361 21.4845 5.20908 20.9689 5.20797 20.433V16.855V16.855ZM28.708 37.416H7.20797C6.67754 37.416 6.16883 37.2053 5.79376 36.8302C5.41869 36.4551 5.20797 35.9464 5.20797 35.416C5.20797 34.8856 5.41869 34.3769 5.79376 34.0018C6.16883 33.6267 6.67754 33.416 7.20797 33.416H28.708C29.2384 33.416 29.7471 33.6267 30.1222 34.0018C30.4973 34.3769 30.708 34.8856 30.708 35.416C30.708 35.9464 30.4973 36.4551 30.1222 36.8302C29.7471 37.2053 29.2384 37.416 28.708 37.416ZM28.708 29.916H7.20797C6.67754 29.916 6.16883 29.7053 5.79376 29.3302C5.41869 28.9551 5.20797 28.4464 5.20797 27.916C5.20797 27.3856 5.41869 26.8769 5.79376 26.5018C6.16883 26.1267 6.67754 25.916 7.20797 25.916H28.708C29.2384 25.916 29.7471 26.1267 30.1222 26.5018C30.4973 26.8769 30.708 27.3856 30.708 27.916C30.708 28.4464 30.4973 28.9551 30.1222 29.3302C29.7471 29.7053 29.2384 29.916 28.708 29.916ZM28.708 22.416H22.208C21.6775 22.416 21.1688 22.2053 20.7938 21.8302C20.4187 21.4551 20.208 20.9464 20.208 20.416C20.208 19.8856 20.4187 19.3769 20.7938 19.0018C21.1688 18.6267 21.6775 18.416 22.208 18.416H28.708C29.2384 18.416 29.7471 18.6267 30.1222 19.0018C30.4973 19.3769 30.708 19.8856 30.708 20.416C30.708 20.9464 30.4973 21.4551 30.1222 21.8302C29.7471 22.2053 29.2384 22.416 28.708 22.416Z" fill="#000000"/>
</svg>
